<svg xmlns="http://www.w3.org/2000/svg" viewBox="0 0 2048 744" role="img" aria-label="Gobernación de Caazapá">
  <g transform="translate(130,80)">
    <path d="M120 40c-60 72-74 170-24 255 36 61 98 106 176 133-68-53-104-115-104-186 0-72 34-143 96-216-57 14-106 38-144 70z" fill="#ee3c13"/>
    <path d="M300 150l35 94h99l-79 58 30 93-85-62-85 62 30-93-79-58h99z" fill="#f3c623"/>
    <path d="M478 40c60 72 74 170 24 255-36 61-98 106-176 133 68-53 104-115 104-186 0-72-34-143-96-216 57 14 106 38 144 70z" fill="#334fc9"/>
  </g>

  <g transform="translate(630,90)">
    <circle cx="180" cy="180" r="170" fill="#2cb6b5" stroke="#0d3f43" stroke-width="7"/>
    <circle cx="180" cy="180" r="120" fill="#2aa5b5" stroke="#ffffff" stroke-width="5"/>
    <circle cx="180" cy="180" r="56" fill="#ffefcc"/>
    <circle cx="180" cy="180" r="12" fill="#f2335d"/>
    <path d="M105 340c45 18 140 18 190 0M105 360c45 18 140 18 190 0M105 380c45 18 140 18 190 0" stroke="#eef7f7" stroke-width="11" fill="none" stroke-linecap="round"/>
  </g>

  <g transform="translate(1010,100)" fill="#2f3138">
    <text x="0" y="120" font-size="140" font-family="Georgia, 'Times New Roman', serif" font-weight="700">GOBERNACIÓN</text>
    <text x="920" y="120" font-size="80" font-family="Georgia, 'Times New Roman', serif" font-weight="700">DE</text>
    <text x="0" y="320" font-size="230" font-family="Georgia, 'Times New Roman', serif" font-weight="700">CAAZAPÁ</text>
    <line x1="0" y1="380" x2="980" y2="380" stroke="#2f3138" stroke-width="4"/>
    <text x="10" y="500" font-size="98" font-family="system-ui, sans-serif" letter-spacing="5">GOBIERNO SOMOS TODOS</text>
  </g>
</svg>
